<svg width="357" height="347" viewBox="0 0 357 347" fill="none" xmlns="http://www.w3.org/2000/svg">
<rect width="357" height="347" rx="50" fill="#111111"/>
<path d="M133.5 93L133.5 160.848L226.5 180.706V256" stroke="#FFCC00" stroke-width="40" stroke-linecap="round" stroke-linejoin="round"/>
<path d="M130.305 213.008C133.731 210.635 138.269 210.635 141.695 213.008L155.511 222.58C158.207 224.448 159.816 227.52 159.816 230.8V253.325C159.816 256.605 158.207 259.677 155.511 261.545L141.695 271.117C138.269 273.49 133.731 273.49 130.305 271.117L116.489 261.545C113.793 259.677 112.184 256.605 112.184 253.325V230.8C112.184 227.52 113.793 224.448 116.489 222.58L130.305 213.008Z" fill="#FFCC00"/>
<path d="M215.305 75.8831C218.731 73.5097 223.269 73.5097 226.695 75.8831L240.511 85.4549C243.207 87.3229 244.816 90.3946 244.816 93.6748V116.2C244.816 119.48 243.207 122.552 240.511 124.42L226.695 133.992C223.269 136.365 218.731 136.365 215.305 133.992L201.489 124.42C198.793 122.552 197.184 119.48 197.184 116.2V93.6748C197.184 90.3946 198.793 87.3229 201.489 85.4549L215.305 75.8831Z" fill="#FFCC00"/>
</svg>
