<svg width="1440" height="1143" viewBox="0 0 1440 1143" fill="none" xmlns="http://www.w3.org/2000/svg">
<rect width="1440" height="1143" fill="url(#paint0_radial_351_1406)"/>
<g opacity="0.3" clip-path="url(#clip0_351_1406)">
<path d="M161.665 455.994C158.164 441.828 162.914 427 178 427C193.086 427 197.836 441.828 194.335 455.994C192.977 461.491 190.713 471.154 188.451 480.922C185.686 492.864 184.304 498.834 187.58 502.189C190.856 505.544 196.686 504.129 208.346 501.297C217.885 498.98 227.32 496.662 232.688 495.271C246.521 491.686 261 496.55 261 512C261 527.45 246.521 532.314 232.688 528.729C227.32 527.338 217.885 525.02 208.346 522.703C196.686 519.871 190.856 518.456 187.58 521.811C184.304 525.166 185.686 531.136 188.451 543.078C190.713 552.846 192.977 562.509 194.335 568.006C197.836 582.172 193.086 597 178 597C162.914 597 158.164 582.172 161.665 568.006C163.023 562.509 165.287 552.846 167.549 543.078C170.314 531.136 171.696 525.166 168.42 521.811C165.144 518.456 159.314 519.872 147.654 522.703C138.115 525.02 128.68 527.338 123.312 528.729C109.479 532.314 95 527.45 95 512C95 496.55 109.479 491.686 123.312 495.271C128.68 496.662 138.115 498.98 147.654 501.297C159.314 504.129 165.144 505.544 168.42 502.189C171.696 498.834 170.314 492.864 167.549 480.922C165.287 471.154 163.023 461.491 161.665 455.994Z" fill="white"/>
<path d="M136.5 489.05C147.043 489.05 155.59 480.297 155.59 469.5C155.59 458.703 147.043 449.95 136.5 449.95C125.957 449.95 117.41 458.703 117.41 469.5C117.41 480.297 125.957 489.05 136.5 489.05Z" fill="white"/>
<path d="M219.5 489.05C230.043 489.05 238.59 480.297 238.59 469.5C238.59 458.703 230.043 449.95 219.5 449.95C208.957 449.95 200.41 458.703 200.41 469.5C200.41 480.297 208.957 489.05 219.5 489.05Z" fill="white"/>
<path d="M155.59 554.5C155.59 565.297 147.043 574.05 136.5 574.05C125.957 574.05 117.41 565.297 117.41 554.5C117.41 543.703 125.957 534.95 136.5 534.95C147.043 534.95 155.59 543.703 155.59 554.5Z" fill="white"/>
<path d="M219.5 574.05C230.043 574.05 238.59 565.297 238.59 554.5C238.59 543.703 230.043 534.95 219.5 534.95C208.957 534.95 200.41 543.703 200.41 554.5C200.41 565.297 208.957 574.05 219.5 574.05Z" fill="white"/>
</g>
<g opacity="0.3" clip-path="url(#clip1_351_1406)">
<path d="M1337 502.25C1337 513.434 1327.93 522.5 1316.75 522.5C1305.57 522.5 1296.5 513.434 1296.5 502.25C1296.5 491.066 1305.57 482 1316.75 482C1327.93 482 1337 491.066 1337 502.25Z" fill="white"/>
<path d="M1337 596.75C1337 607.934 1327.93 617 1316.75 617C1305.57 617 1296.5 607.934 1296.5 596.75C1296.5 585.566 1305.57 576.5 1316.75 576.5C1327.93 576.5 1337 585.566 1337 596.75Z" fill="white"/>
<path d="M1303.93 549.5C1303.93 568.512 1288.51 583.925 1269.5 583.925C1250.49 583.925 1235.08 568.512 1235.08 549.5C1235.08 530.488 1250.49 515.075 1269.5 515.075C1288.51 515.075 1303.93 530.488 1303.93 549.5Z" fill="white"/>
<path d="M1242.5 502.25C1242.5 513.434 1233.43 522.5 1222.25 522.5C1211.07 522.5 1202 513.434 1202 502.25C1202 491.066 1211.07 482 1222.25 482C1233.43 482 1242.5 491.066 1242.5 502.25Z" fill="white"/>
<path d="M1242.5 596.75C1242.5 607.934 1233.43 617 1222.25 617C1211.07 617 1202 607.934 1202 596.75C1202 585.566 1211.07 576.5 1222.25 576.5C1233.43 576.5 1242.5 585.566 1242.5 596.75Z" fill="white"/>
</g>
<g opacity="0.3">
<path d="M1125.5 280L1116.06 232.801L1089.47 250.525L1107.2 223.94L1060 214.5L1107.2 205.06L1089.47 178.475L1116.06 196.198L1125.5 149L1134.94 196.198L1161.53 178.475L1143.8 205.06L1191 214.5L1143.8 223.94L1161.52 250.525L1134.94 232.801L1125.5 280Z" fill="white"/>
</g>
<defs>
<radialGradient id="paint0_radial_351_1406" cx="0" cy="0" r="1" gradientUnits="userSpaceOnUse" gradientTransform="rotate(38.4408) scale(1838.49 1838.49)">
<stop stop-color="#FFCC00" stop-opacity="0.3"/>
<stop offset="1" stop-color="#D78233" stop-opacity="0.3"/>
</radialGradient>
<clipPath id="clip0_351_1406">
<rect width="166" height="170" fill="white" transform="translate(95 427)"/>
</clipPath>
<clipPath id="clip1_351_1406">
<rect width="135" height="135" fill="white" transform="translate(1202 482)"/>
</clipPath>
</defs>
</svg>
